<artifacts identifier="user-flow-complete" type="application/xml" title="完整业务流程图.drawio">
<mxfile host="app.diagrams.net">
  <diagram name="完整业务流程" id="complete-flow">
    <mxGraphModel dx="2000" dy="1100" grid="1" gridSize="10" guides="1">
      <root>
        <mxCell id="0"/>
        <mxCell id="1" parent="0"/>
        
        <!-- 泳道布局 -->
        <mxCell id="lane-user" value="用户操作" style="swimlane;horizontal=0;whiteSpace=wrap;html=1;fillColor=#E3F2FD;fontSize=14;fontStyle=1" vertex="1" parent="1">
          <mxGeometry x="40" y="40" width="1200" height="200" as="geometry"/>
        </mxCell>
        
        <mxCell id="lane-component" value="组件处理" style="swimlane;horizontal=0;whiteSpace=wrap;html=1;fillColor=#FFF3E0;fontSize=14;fontStyle=1" vertex="1" parent="1">
          <mxGeometry x="40" y="240" width="1200" height="300" as="geometry"/>
        </mxCell>
        
        <mxCell id="lane-data" value="数据处理" style="swimlane;horizontal=0;whiteSpace=wrap;html=1;fillColor=#F3E5F5;fontSize=14;fontStyle=1" vertex="1" parent="1">
          <mxGeometry x="40" y="540" width="1200" height="200" as="geometry"/>
        </mxCell>
        
        <mxCell id="lane-backend" value="后端交互" style="swimlane;horizontal=0;whiteSpace=wrap;html=1;fillColor=#FFEBEE;fontSize=14;fontStyle=1" vertex="1" parent="1">
          <mxGeometry x="40" y="740" width="1200" height="120" as="geometry"/>
        </mxCell>
        
        <!-- 用户层 -->
        <mxCell id="u1" value="进入页面" style="rounded=1;whiteSpace=wrap;html=1;fillColor=#BBDEFB;" vertex="1" parent="lane-user">
          <mxGeometry x="80" y="60" width="100" height="50" as="geometry"/>
        </mxCell>
        
        <mxCell id="u2" value="点击题目节点" style="rounded=1;whiteSpace=wrap;html=1;fillColor=#90CAF9;" vertex="1" parent="lane-user">
          <mxGeometry x="220" y="60" width="100" height="50" as="geometry"/>
        </mxCell>
        
        <mxCell id="u3" value="🖱️ 拖拽绘制矩形" style="rounded=1;whiteSpace=wrap;html=1;fillColor=#64B5F6;fontStyle=1" vertex="1" parent="lane-user">
          <mxGeometry x="360" y="60" width="100" height="50" as="geometry"/>
        </mxCell>
        
        <mxCell id="u4" value="松开鼠标" style="rounded=1;whiteSpace=wrap;html=1;fillColor=#42A5F5;" vertex="1" parent="lane-user">
          <mxGeometry x="500" y="60" width="100" height="50" as="geometry"/>
        </mxCell>
        
        <mxCell id="u5" value="查看结果" style="rounded=1;whiteSpace=wrap;html=1;fillColor=#90CAF9;" vertex="1" parent="lane-user">
          <mxGeometry x="920" y="60" width="100" height="50" as="geometry"/>
        </mxCell>
        
        <mxCell id="u6" value="更多操作" style="rounded=1;whiteSpace=wrap;html=1;fillColor=#BBDEFB;" vertex="1" parent="lane-user">
          <mxGeometry x="1060" y="60" width="100" height="50" as="geometry"/>
        </mxCell>
        
        <!-- 组件层 -->
        <mxCell id="c1" value="RightQuestionView&lt;br&gt;handleToEdit()" style="rounded=1;whiteSpace=wrap;html=1;fillColor=#FFCC80;" vertex="1" parent="lane-component">
          <mxGeometry x="220" y="40" width="100" height="60" as="geometry"/>
        </mxCell>
        
        <mxCell id="c2" value="ImageQuestionMatch&lt;br&gt;设置绘制模式" style="rounded=1;whiteSpace=wrap;html=1;fillColor=#FFB74D;fontStyle=1" vertex="1" parent="lane-component">
          <mxGeometry x="220" y="130" width="120" height="60" as="geometry"/>
        </mxCell>
        
        <mxCell id="c3" value="ImageDivider&lt;br&gt;Canvas绘制" style="rounded=1;whiteSpace=wrap;html=1;fillColor=#FFA726;fontStyle=1" vertex="1" parent="lane-component">
          <mxGeometry x="360" y="40" width="100" height="60" as="geometry"/>
        </mxCell>
        
        <mxCell id="c4" value="handleMouseUp&lt;br&gt;onPartitionAdd" style="rounded=1;whiteSpace=wrap;html=1;fillColor=#FF9800;" vertex="1" parent="lane-component">
          <mxGeometry x="500" y="40" width="100" height="60" as="geometry"/>
        </mxCell>
        
        <mxCell id="c5" value="坐标转换&lt;br&gt;convertToOriginalCoordinates" style="rounded=1;whiteSpace=wrap;html=1;fillColor=#FB8C00;" vertex="1" parent="lane-component">
          <mxGeometry x="500" y="130" width="100" height="80" as="geometry"/>
        </mxCell>
        
        <mxCell id="c6" value="updateQuestionNodeStatus&lt;br&gt;更新数据结构" style="rounded=1;whiteSpace=wrap;html=1;fillColor=#FFB74D;fontStyle=1" vertex="1" parent="lane-component">
          <mxGeometry x="640" y="40" width="120" height="80" as="geometry"/>
        </mxCell>
        
        <mxCell id="c7" value="drawCanvas&lt;br&gt;重绘UI" style="rounded=1;whiteSpace=wrap;html=1;fillColor=#FFCC80;" vertex="1" parent="lane-component">
          <mxGeometry x="920" y="40" width="100" height="60" as="geometry"/>
        </mxCell>
        
        <!-- 数据层 -->
        <mxCell id="d1" value="partitions&lt;br&gt;(useImmer)" style="shape=cylinder3;whiteSpace=wrap;html=1;boundedLbl=1;backgroundOutline=1;size=15;fillColor=#CE93D8;" vertex="1" parent="lane-data">
          <mxGeometry x="640" y="50" width="80" height="80" as="geometry"/>
        </mxCell>
        
        <mxCell id="d2" value="paperNodes&lt;br&gt;content + delta" style="shape=cylinder3;whiteSpace=wrap;html=1;boundedLbl=1;backgroundOutline=1;size=15;fillColor=#BA68C8;fontStyle=1" vertex="1" parent="lane-data">
          <mxGeometry x="780" y="50" width="80" height="80" as="geometry"/>
        </mxCell>
        
        <mxCell id="d3" value="biz_extra&lt;br&gt;坐标数据" style="shape=cylinder3;whiteSpace=wrap;html=1;boundedLbl=1;backgroundOutline=1;size=15;fillColor=#AB47BC;" vertex="1" parent="lane-data">
          <mxGeometry x="920" y="50" width="80" height="80" as="geometry"/>
        </mxCell>
        
        <!-- 后端层 -->
        <mxCell id="b1" value="autoSave&lt;br&gt;防抖1秒" style="rounded=1;whiteSpace=wrap;html=1;fillColor=#EF9A9A;fontStyle=1" vertex="1" parent="lane-backend">
          <mxGeometry x="780" y="30" width="100" height="50" as="geometry"/>
        </mxCell>
        
        <mxCell id="b2" value="MuseController&lt;br&gt;updateMakePaperQuestion" style="shape=cylinder3;whiteSpace=wrap;html=1;boundedLbl=1;backgroundOutline=1;size=15;fillColor=#E57373;" vertex="1" parent="lane-backend">
          <mxGeometry x="920" y="30" width="100" height="60" as="geometry"/>
        </mxCell>
        
        <!-- 连线 -->
        <mxCell id="flow1" style="edgeStyle=orthogonalEdgeStyle;rounded=0;html=1;exitX=1;exitY=0.5;entryX=0;entryY=0.5;strokeWidth=2;strokeColor=#1976D2;" edge="1" parent="1" source="u2" target="c1">
          <mxGeometry relative="1" as="geometry"/>
        </mxCell>
        
        <mxCell id="flow2" style="edgeStyle=orthogonalEdgeStyle;rounded=0;html=1;exitX=0.5;exitY=1;entryX=0.5;entryY=0;strokeWidth=2;strokeColor=#F57C00;" edge="1" parent="1" source="c1" target="c2">
          <mxGeometry relative="1" as="geometry"/>
        </mxCell>
        
        <mxCell id="flow3" style="edgeStyle=orthogonalEdgeStyle;rounded=0;html=1;exitX=1;exitY=0.5;entryX=0;entryY=0.5;strokeWidth=2;strokeColor=#FF5722;" edge="1" parent="1" source="u3" target="c3">
          <mxGeometry relative="1" as="geometry"/>
        </mxCell>
        
        <mxCell id="flow4" style="edgeStyle=orthogonalEdgeStyle;rounded=0;html=1;exitX=1;exitY=0.5;entryX=0;entryY=0.5;strokeWidth=2;strokeColor=#512DA8;" edge="1" parent="1" source="u4" target="c4">
          <mxGeometry relative="1" as="geometry"/>
        </mxCell>
        
        <mxCell id="flow5" style="edgeStyle=orthogonalEdgeStyle;rounded=0;html=1;exitX=0.5;exitY=1;entryX=0.5;entryY=0;strokeWidth=2;strokeColor=#7B1FA2;" edge="1" parent="1" source="c4" target="c5">
          <mxGeometry relative="1" as="geometry"/>
        </mxCell>
        
        <mxCell id="flow6" style="edgeStyle=orthogonalEdgeStyle;rounded=0;html=1;exitX=1;exitY=0.5;entryX=0;entryY=0.5;strokeWidth=2;strokeColor=#E53935;" edge="1" parent="1" source="c5" target="c6">
          <mxGeometry relative="1" as="geometry"/>
        </mxCell>
        
        <mxCell id="flow7" style="edgeStyle=orthogonalEdgeStyle;rounded=0;html=1;exitX=0.5;exitY=1;entryX=0.5;entryY=0;strokeWidth=2;strokeColor=#AB47BC;" edge="1" parent="1" source="c6" target="d1">
          <mxGeometry relative="1" as="geometry"/>
        </mxCell>
        
        <mxCell id="flow8" style="edgeStyle=orthogonalEdgeStyle;rounded=0;html=1;exitX=1;exitY=0.5;entryX=0;entryY=0.5;strokeWidth=2;strokeColor=#AB47BC;" edge="1" parent="1" source="d1" target="d2">
          <mxGeometry relative="1" as="geometry"/>
        </mxCell>
        
        <mxCell id="flow9" style="edgeStyle=orthogonalEdgeStyle;rounded=0;html=1;exitX=1;exitY=0.5;entryX=0;entryY=0.5;strokeWidth=2;strokeColor=#AB47BC;" edge="1" parent="1" source="d2" target="d3">
          <mxGeometry relative="1" as="geometry"/>
        </mxCell>
        
        <mxCell id="flow10" style="edgeStyle=orthogonalEdgeStyle;rounded=0;html=1;exitX=0.5;exitY=1;entryX=0.5;entryY=0;strokeWidth=2;strokeColor=#E53935;dashed=1;" edge="1" parent="1" source="d2" target="b1">
          <mxGeometry relative="1" as="geometry"/>
        </mxCell>
        
        <mxCell id="flow11" style="edgeStyle=orthogonalEdgeStyle;rounded=0;html=1;exitX=1;exitY=0.5;entryX=0;entryY=0.5;strokeWidth=2;strokeColor=#E53935;" edge="1" parent="1" source="b1" target="b2">
          <mxGeometry relative="1" as="geometry"/>
        </mxCell>
        
        <mxCell id="flow12" style="edgeStyle=orthogonalEdgeStyle;rounded=0;html=1;exitX=0;exitY=0.5;entryX=1;entryY=0.5;strokeWidth=2;strokeColor=#00897B;" edge="1" parent="1" source="c7" target="c6">
          <mxGeometry relative="1" as="geometry">
            <Array as="points">
              <mxPoint x="900" y="310"/>
              <mxPoint x="900" y="320"/>
            </Array>
          </mxGeometry>
        </mxCell>
        
        <mxCell id="flow13" style="edgeStyle=orthogonalEdgeStyle;rounded=0;html=1;exitX=0.5;exitY=0;entryX=0.5;entryY=1;strokeWidth=2;strokeColor=#1976D2;" edge="1" parent="1" source="c7" target="u5">
          <mxGeometry relative="1" as="geometry"/>
        </mxCell>
        
        <!-- 标注 -->
        <mxCell id="label1" value="1. 用户交互" style="text;html=1;align=center;verticalAlign=middle;whiteSpace=wrap;rounded=0;fillColor=#E3F2FD;fontSize=11;fontStyle=1" vertex="1" parent="1">
          <mxGeometry x="360" y="10" width="100" height="20" as="geometry"/>
        </mxCell>
        
        <mxCell id="label2" value="2. 组件处理" style="text;html=1;align=center;verticalAlign=middle;whiteSpace=wrap;rounded=0;fillColor=#FFF3E0;fontSize=11;fontStyle=1" vertex="1" parent="1">
          <mxGeometry x="500" y="210" width="100" height="20" as="geometry"/>
        </mxCell>
        
        <mxCell id="label3" value="3. 数据更新" style="text;html=1;align=center;verticalAlign=middle;whiteSpace=wrap;rounded=0;fillColor=#F3E5F5;fontSize=11;fontStyle=1" vertex="1" parent="1">
          <mxGeometry x="780" y="510" width="100" height="20" as="geometry"/>
        </mxCell>
        
        <mxCell id="label4" value="4. 后端保存" style="text;html=1;align=center;verticalAlign=middle;whiteSpace=wrap;rounded=0;fillColor=#FFEBEE;fontSize=11;fontStyle=1" vertex="1" parent="1">
          <mxGeometry x="920" y="710" width="100" height="20" as="geometry"/>
        </mxCell>
      </root>
    </mxGraphModel>
  </diagram>
</mxfile>
</artifacts>
